<?xml version="1.0" standalone="no"?>
<!DOCTYPE svg PUBLIC "-//W3C//DTD SVG 20010904//EN"
 "http://www.w3.org/TR/2001/REC-SVG-20010904/DTD/svg10.dtd">
<svg version="1.0" xmlns="http://www.w3.org/2000/svg"
 width="260.000000pt" height="260.000000pt" viewBox="0 0 260.000000 260.000000"
 preserveAspectRatio="xMidYMid meet">
<metadata>
Created by potrace 1.11, written by Peter Selinger 2001-2013
</metadata>
<g transform="translate(0.000000,260.000000) scale(0.100000,-0.100000)"
fill="#000000" stroke="none">
<path d="M0 1300 l0 -1300 1300 0 1300 0 0 1300 0 1300 -1300 0 -1300 0 0
-1300z m450 880 l0 -110 110 0 110 0 0 110 0 111 63 -3 62 -3 0 -275 0 -275
-62 -3 -63 -3 0 111 0 110 -110 0 -110 0 0 -110 0 -110 -65 0 -65 0 0 273 c0
151 3 277 7 280 3 4 33 7 65 7 l58 0 0 -110z m678 -172 l2 -278 -65 0 -65 0 0
280 0 281 63 -3 62 -3 3 -277z m279 270 c6 -7 36 -75 68 -150 31 -76 58 -138
60 -138 1 0 31 68 66 150 l63 150 68 0 c37 0 68 -3 68 -7 0 -19 -256 -552
-266 -553 -10 0 -264 526 -264 548 0 17 124 16 137 0z m881 -50 l3 -57 -113
-3 -113 -3 -3 -47 -3 -48 105 0 106 0 0 -55 0 -54 -102 -3 -103 -3 -3 -52 -3
-52 113 -3 113 -3 3 -57 3 -58 -176 0 -175 0 0 280 0 280 173 -2 172 -3 3 -57z
m10 -615 c-3 -17 -60 -18 -996 -21 -987 -2 -992 -2 -992 18 0 20 6 20 996 20
943 0 995 -1 992 -17z m-1757 -175 c42 -12 44 -14 29 -52 -8 -23 -12 -25 -35
-16 -66 25 -129 -4 -141 -64 -14 -75 50 -127 128 -105 46 12 44 13 53 -23 6
-24 3 -29 -20 -38 -41 -15 -116 -12 -155 8 -19 9 -45 33 -58 52 -20 30 -23 45
-20 97 3 55 8 67 38 98 50 52 108 65 181 43z m762 1 c38 -10 45 -25 27 -59 -9
-16 -15 -18 -36 -10 -74 28 -134 -8 -134 -80 0 -23 4 -50 10 -60 15 -27 68
-42 110 -30 47 14 47 14 58 -19 10 -29 9 -30 -25 -42 -86 -28 -190 8 -219 77
-58 139 60 265 209 223z m596 -9 c18 -9 19 -14 9 -35 -10 -23 -15 -25 -58 -19
-76 10 -119 -22 -120 -89 0 -53 45 -100 92 -95 25 2 34 8 36 25 3 17 -2 22
-25 25 -23 2 -29 8 -31 36 l-3 32 65 0 66 0 0 -79 0 -79 -31 -11 c-49 -17
-130 -13 -169 8 -76 41 -102 158 -50 231 44 62 151 87 219 50z m319 -7 c45
-34 65 -70 69 -125 8 -100 -55 -168 -155 -168 -93 0 -146 48 -158 142 -16 127
144 226 244 151z m-1518 -43 l0 -61 58 3 57 3 3 58 3 57 34 0 35 0 0 -155 0
-155 -35 0 -34 0 -3 63 -3 62 -57 3 -58 3 0 -66 0 -66 -37 3 -38 3 -3 153 -3
152 41 0 40 0 0 -60z m320 -95 l0 -155 -35 0 -35 0 0 155 0 155 35 0 35 0 0
-155z m556 9 c38 -80 71 -150 72 -155 2 -5 -12 -9 -32 -9 -29 0 -38 5 -51 30
-14 27 -20 30 -65 30 -45 0 -51 -3 -65 -30 -13 -25 -22 -30 -51 -30 -20 0 -34
4 -32 9 18 47 143 301 148 301 4 0 38 -66 76 -146z m722 -316 c3 -17 -49 -18
-992 -18 -990 0 -996 0 -996 20 0 20 5 20 992 18 936 -3 993 -4 996 -20z
m-1684 -137 c64 -31 86 -63 86 -122 0 -40 -5 -52 -31 -78 -17 -17 -35 -31 -40
-31 -20 0 -7 -18 22 -30 66 -28 89 -118 46 -181 -38 -57 -95 -81 -202 -87 -51
-2 -114 -1 -139 2 l-46 7 0 269 0 269 38 4 c20 3 78 4 128 2 71 -2 102 -7 138
-24z m306 -156 c0 -233 13 -265 110 -265 98 0 110 28 110 260 l0 180 60 0 60
0 0 -197 c0 -171 -3 -203 -19 -238 -37 -81 -101 -115 -214 -115 -89 0 -133 16
-175 64 -45 52 -52 90 -52 299 l0 187 60 0 60 0 0 -175z m859 138 c-13 -21
-74 -116 -136 -211 -62 -95 -113 -177 -113 -182 0 -6 54 -10 130 -10 l130 0 0
-55 0 -55 -229 0 c-127 0 -232 3 -234 8 -3 4 55 99 129 212 73 113 134 208
134 213 0 4 -56 7 -125 7 l-125 0 0 55 0 55 231 0 231 0 -23 -37z m484 -20
c-20 -32 -83 -129 -139 -215 -56 -86 -100 -159 -96 -162 3 -3 63 -6 134 -6
l128 0 0 -55 0 -55 -235 0 c-129 0 -235 4 -235 8 0 5 61 102 135 216 74 114
135 210 135 212 0 2 -56 4 -125 4 l-125 0 0 55 0 55 230 0 230 0 -37 -57z"/>
<path d="M2092 1373 c-19 -7 -42 -58 -42 -93 0 -40 47 -90 85 -90 42 0 75 41
75 93 0 59 -29 97 -73 96 -18 0 -38 -3 -45 -6z"/>
<path d="M1487 1293 c-2 -10 -8 -26 -12 -35 -6 -14 -2 -18 17 -18 35 0 39 8
22 41 -17 34 -20 35 -27 12z"/>
<path d="M432 698 l3 -63 54 0 c44 1 57 5 72 24 44 54 8 101 -76 101 l-56 0 3
-62z"/>
<path d="M430 479 l0 -71 61 4 c49 4 66 9 80 27 26 31 24 57 -6 86 -20 21 -34
25 -80 25 l-55 0 0 -71z"/>
</g>
</svg>
